<svg width="75" height="65" viewBox="0 0 75 65" fill="none" xmlns="http://www.w3.org/2000/svg">
<path d="M59.9627 4.84764C56.9291 10.1804 53.9352 15.4415 50.8922 20.7913C49.6633 22.9527 51.2226 25.6389 53.7087 25.6389H71.7533C74.2602 25.6389 75.8176 28.3629 74.549 30.5243C68.2026 41.339 61.9769 51.9517 55.6191 62.7853C54.3581 64.9335 51.2434 64.9146 50.005 62.7532C38.8845 43.3588 27.8942 24.1891 16.8115 4.85897C15.5713 2.69754 17.1305 0 19.6223 0H57.1481C59.6324 0.00188771 61.1916 2.68621 59.9627 4.84764Z" fill="url(#paint0_linear_495_554)"/>
<path d="M32.9397 48.9576L24.7905 63.2967C23.6087 65.3751 20.6186 65.3826 19.4256 63.3099L0.416323 30.2712C-0.76916 28.2117 0.718357 25.6406 3.09499 25.6406H19.9202C21.0452 25.6406 22.0797 26.2522 22.6252 27.2357L32.9605 45.9373C33.4777 46.8793 33.472 48.0232 32.9397 48.9576Z" fill="url(#paint1_linear_495_554)"/>
<defs>
<linearGradient id="paint0_linear_495_554" x1="45.6883" y1="0" x2="45.6883" y2="64.3854" gradientUnits="userSpaceOnUse">
<stop stop-color="#24357C"/>
<stop offset="0.23" stop-color="#24387F"/>
<stop offset="0.41" stop-color="#254287"/>
<stop offset="0.57" stop-color="#265396"/>
<stop offset="0.73" stop-color="#276BAA"/>
<stop offset="0.88" stop-color="#2889C5"/>
<stop offset="1" stop-color="#2AA9E0"/>
</linearGradient>
<linearGradient id="paint1_linear_495_554" x1="16.6719" y1="25.6406" x2="16.6719" y2="64.86" gradientUnits="userSpaceOnUse">
<stop stop-color="#24357C"/>
<stop offset="0.23" stop-color="#24387F"/>
<stop offset="0.41" stop-color="#254287"/>
<stop offset="0.57" stop-color="#265396"/>
<stop offset="0.73" stop-color="#276BAA"/>
<stop offset="0.88" stop-color="#2889C5"/>
<stop offset="1" stop-color="#2AA9E0"/>
</linearGradient>
</defs>
</svg>
